HIERARCHY
ROOT Hips
{
	OFFSET 0 0 0
	CHANNELS 6 Xposition Yposition Zposition Yrotation Xrotation Zrotation
	JOINT Spine
	{
		OFFSET -0 8.07728 -2.57463
		CHANNELS 3 Yrotation Xrotation Zrotation
		JOINT Spine1
		{
			OFFSET -0 7.85748 0
			CHANNELS 3 Yrotation Xrotation Zrotation
			JOINT Spine2
			{
				OFFSET -0 7.85748 0
				CHANNELS 3 Yrotation Xrotation Zrotation
				JOINT Spine3
				{
					OFFSET -0 7.85748 0
					CHANNELS 3 Yrotation Xrotation Zrotation
					JOINT Neck
					{
						OFFSET -0 14.0969 3.57463
						CHANNELS 3 Yrotation Xrotation Zrotation
						JOINT Head
						{
							OFFSET -0 10.0966 0
							CHANNELS 3 Yrotation Xrotation Zrotation
							End Site
							{
								OFFSET 0 15 0
							}
						}
					}
					JOINT LeftShoulder
					{
						OFFSET 1.68277 2.40696 3.36553
						CHANNELS 3 Yrotation Xrotation Zrotation
						JOINT LeftArm
						{
							OFFSET 18.0611 0 0
							CHANNELS 3 Yrotation Xrotation Zrotation
							JOINT LeftForeArm
							{
								OFFSET 22.6236 0 0
								CHANNELS 3 Yrotation Xrotation Zrotation
								JOINT LeftHand
								{
									OFFSET 24.2874 0 0
									CHANNELS 3 Yrotation Xrotation Zrotation
									JOINT LeftHandThumb1
									{
										OFFSET 4.73728 0 2.48881
										CHANNELS 3 Yrotation Xrotation Zrotation
										JOINT LeftHandThumb2
										{
											OFFSET 3 0 1
											CHANNELS 3 Yrotation Xrotation Zrotation
											JOINT LeftHandThumb3
											{
												OFFSET 2.1 0 0
												CHANNELS 3 Yrotation Xrotation Zrotation
												JOINT LeftHandThumb4
												{
													OFFSET 1.305 0 0
													CHANNELS 3 Yrotation Xrotation Zrotation
													End Site
													{
														OFFSET -0 0 0
													}
												}
											}
										}
									}
									JOINT LeftHandIndex1
									{
										OFFSET 8.45149 0 3.3332
										CHANNELS 3 Yrotation Xrotation Zrotation
										JOINT LeftHandIndex2
										{
											OFFSET 3.5 0 0
											CHANNELS 3 Yrotation Xrotation Zrotation
											JOINT LeftHandIndex3
											{
												OFFSET 2.45 0 0
												CHANNELS 3 Yrotation Xrotation Zrotation
												JOINT LeftHandIndex4
												{
													OFFSET 1.5225 0 0
													CHANNELS 3 Yrotation Xrotation Zrotation
													End Site
													{
														OFFSET -0 0 0
													}
												}
											}
										}
									}
									JOINT LeftHandMiddle1
									{
										OFFSET 8.76388 0 0.837268
										CHANNELS 3 Yrotation Xrotation Zrotation
										JOINT LeftHandMiddle2
										{
											OFFSET 4.6 0 0
											CHANNELS 3 Yrotation Xrotation Zrotation
											JOINT LeftHandMiddle3
											{
												OFFSET 3.22 0 0
												CHANNELS 3 Yrotation Xrotation Zrotation
												JOINT LeftHandMiddle4
												{
													OFFSET 2.001 0 0
													CHANNELS 3 Yrotation Xrotation Zrotation
													End Site
													{
														OFFSET -0 0 0
													}
												}
											}
										}
									}
									JOINT LeftHandRing1
									{
										OFFSET 8.77626 0 -1.65867
										CHANNELS 3 Yrotation Xrotation Zrotation
										JOINT LeftHandRing2
										{
											OFFSET 3.75 0 0
											CHANNELS 3 Yrotation Xrotation Zrotation
											JOINT LeftHandRing3
											{
												OFFSET 2.625 0 0
												CHANNELS 3 Yrotation Xrotation Zrotation
												JOINT LeftHandRing4
												{
													OFFSET 1.63125 0 0
													CHANNELS 3 Yrotation Xrotation Zrotation
													End Site
													{
														OFFSET -0 0 0
													}
												}
											}
										}
									}
									JOINT LeftHandPinky1
									{
										OFFSET 8.48864 0 -4.1546
										CHANNELS 3 Yrotation Xrotation Zrotation
										JOINT LeftHandPinky2
										{
											OFFSET 2.875 0 0
											CHANNELS 3 Yrotation Xrotation Zrotation
											JOINT LeftHandPinky3
											{
												OFFSET 2.0125 0 0
												CHANNELS 3 Yrotation Xrotation Zrotation
												JOINT LeftHandPinky4
												{
													OFFSET 1.25062 0 0
													CHANNELS 3 Yrotation Xrotation Zrotation
													End Site
													{
														OFFSET -0 0 0
													}
												}
											}
										}
									}
								}
							}
						}
					}
					JOINT RightShoulder
					{
						OFFSET -1.68277 2.40696 3.36553
						CHANNELS 3 Yrotation Xrotation Zrotation
						JOINT RightArm
						{
							OFFSET -18.0611 0 0
							CHANNELS 3 Yrotation Xrotation Zrotation
							JOINT RightForeArm
							{
								OFFSET -22.6236 0 0
								CHANNELS 3 Yrotation Xrotation Zrotation
								JOINT RightHand
								{
									OFFSET -24.2874 0 0
									CHANNELS 3 Yrotation Xrotation Zrotation
									JOINT RightHandThumb1
									{
										OFFSET -4.51754 0 2.6169
										CHANNELS 3 Yrotation Xrotation Zrotation
										JOINT RightHandThumb2
										{
											OFFSET -3 0 1
											CHANNELS 3 Yrotation Xrotation Zrotation
											JOINT RightHandThumb3
											{
												OFFSET -2.1 0 0
												CHANNELS 3 Yrotation Xrotation Zrotation
												JOINT RightHandThumb4
												{
													OFFSET -1.305 0 0
													CHANNELS 3 Yrotation Xrotation Zrotation
													End Site
													{
														OFFSET -0 0 0
													}
												}
											}
										}
									}
									JOINT RightHandIndex1
									{
										OFFSET -8.60414 0 3.42357
										CHANNELS 3 Yrotation Xrotation Zrotation
										JOINT RightHandIndex2
										{
											OFFSET -3.5 0 0
											CHANNELS 3 Yrotation Xrotation Zrotation
											JOINT RightHandIndex3
											{
												OFFSET -2.45 0 0
												CHANNELS 3 Yrotation Xrotation Zrotation
												JOINT RightHandIndex4
												{
													OFFSET -1.5225 0 0
													CHANNELS 3 Yrotation Xrotation Zrotation
													End Site
													{
														OFFSET -0 0 0
													}
												}
											}
										}
									}
									JOINT RightHandMiddle1
									{
										OFFSET -8.52211 0 1.19563
										CHANNELS 3 Yrotation Xrotation Zrotation
										JOINT RightHandMiddle2
										{
											OFFSET -4.6 0 0
											CHANNELS 3 Yrotation Xrotation Zrotation
											JOINT RightHandMiddle3
											{
												OFFSET -3.22 0 0
												CHANNELS 3 Yrotation Xrotation Zrotation
												JOINT RightHandMiddle4
												{
													OFFSET -2.001 0 0
													CHANNELS 3 Yrotation Xrotation Zrotation
													End Site
													{
														OFFSET -0 0 0
													}
												}
											}
										}
									}
									JOINT RightHandRing1
									{
										OFFSET -8.14008 0 -1.0323
										CHANNELS 3 Yrotation Xrotation Zrotation
										JOINT RightHandRing2
										{
											OFFSET -3.75 0 0
											CHANNELS 3 Yrotation Xrotation Zrotation
											JOINT RightHandRing3
											{
												OFFSET -2.625 0 0
												CHANNELS 3 Yrotation Xrotation Zrotation
												JOINT RightHandRing4
												{
													OFFSET -1.63125 0 0
													CHANNELS 3 Yrotation Xrotation Zrotation
													End Site
													{
														OFFSET -0 0 0
													}
												}
											}
										}
									}
									JOINT RightHandPinky1
									{
										OFFSET -7.45805 0 -3.26023
										CHANNELS 3 Yrotation Xrotation Zrotation
										JOINT RightHandPinky2
										{
											OFFSET -2.875 0 0
											CHANNELS 3 Yrotation Xrotation Zrotation
											JOINT RightHandPinky3
											{
												OFFSET -2.0125 0 0
												CHANNELS 3 Yrotation Xrotation Zrotation
												JOINT RightHandPinky4
												{
													OFFSET -1.25062 0 0
													CHANNELS 3 Yrotation Xrotation Zrotation
													End Site
													{
														OFFSET -0 0 0
													}
												}
											}
										}
									}
								}
							}
						}
					}
				}
			}
		}
	}
	JOINT LeftUpLeg
	{
		OFFSET 10.0966 -3.36553 3
		CHANNELS 3 Yrotation Xrotation Zrotation
		JOINT LeftLeg
		{
			OFFSET -0 -44.1253 2.35587
			CHANNELS 3 Yrotation Xrotation Zrotation
			JOINT LeftFoot
			{
				OFFSET -0 -37.5861 -2.35587
				CHANNELS 3 Yrotation Xrotation Zrotation
				JOINT LeftToeBase
				{
					OFFSET -0 -9.60866 9.35537
					CHANNELS 3 Yrotation Xrotation Zrotation
					End Site
					{
						OFFSET 0 0 5
					}
				}
			}
		}
	}
	JOINT RightUpLeg
	{
		OFFSET -10.0966 -3.36553 3
		CHANNELS 3 Yrotation Xrotation Zrotation
		JOINT RightLeg
		{
			OFFSET -0 -44.1253 2.35587
			CHANNELS 3 Yrotation Xrotation Zrotation
			JOINT RightFoot
			{
				OFFSET -0 -37.5861 -2.35587
				CHANNELS 3 Yrotation Xrotation Zrotation
				JOINT RightToeBase
				{
					OFFSET -0 -9.60866 9.35537
					CHANNELS 3 Yrotation Xrotation Zrotation
					End Site
					{
						OFFSET 0 0 5
					}
				}
			}
		}
	}
}
MOTION
Frames: 5
Frame Time: 0.0047619
0 95.099306 0 0 0 0 0 0 0 0 0 0 0 0 0 0 0 0 0 0 0 0 0 0 0 0 0 0 0 0 0 0 0 0 0 0 0 0 0 0 0 0 0 0 0 0 0 0 0 0 0 0 0 0 0 0 0 0 0 0 0 0 0 0 0 0 0 0 0 0 0 0 0 0 0 0 0 0 0 0 0 0 0 0 0 0 0 0 0 0 0 0 0 0 0 0 0 0 0 0 0 0 0 0 0 0 0 0 0 0 0 0 0 0 0 0 0 0 0 0 0 0 0 0 0 0 0 0 0 0 0 0 0 0 0 0 0 0 0 0 0 0 0 0 0 0 0 0 0 0 0 0 0 0 0 0 0 0 0 0 0 0 0 0 0 0 0 0 0 0 0 0 0 0 0 0 0 0 0 0 0 0 0 0 0 0 0 0 0 0 0 0
-33.361566 94.883398 -23.497250 9.300686 -3.803788 -1.332289 -0.649945 0.438488 0.940041 -0.665148 0.691386 0.702960 -0.881428 0.850420 0.426371 -0.929923 0.989986 0.260219 0.569232 1.774002 2.532347 0.215526 -0.109425 -0.979179 10.727640 2.555843 6.987822 -20.317905 1.087915 -13.758461 -5.980076 0.971509 0.816270 25.131441 2.367020 -31.011847 -38.265460 -3.849902 -7.362319 -43.972895 -4.816098 -8.187846 64.830194 5.445621 20.908035 -0.000047 0.000024 1.950131 -0.000047 0.000024 1.950131 -0.000054 0.000023 1.560103 -0.000005 0.000007 0.780051 -0.000022 0.000010 1.323891 -0.000022 0.000010 1.323891 -0.000007 0.000008 1.059114 -0.000010 0.000002 0.529556 0.000003 -0.000000 6.975243 0.000003 -0.000000 6.975243 -0.000003 -0.000000 5.580193 -0.000005 0.000000 2.790098 -0.000011 0.000009 7.334234 -0.000011 0.000009 7.334234 -0.000025 0.000005 5.867388 -0.000007 0.000005 2.933690 -175.539686 -0.002122 -179.945515 -5.441466 4.662043 -5.440383 21.346143 6.548056 3.081097 7.030134 4.966685 0.490629 -17.702218 -12.641758 40.534120 -2.698078 -9.609721 5.025575 -3.182823 -11.029639 5.830809 -12.439630 2.413593 -3.058284 -0.000089 0.000002 8.546031 -0.000089 0.000002 8.546031 -0.000076 0.000003 6.836828 -0.000040 -0.000012 3.418410 -0.000056 0.000021 17.166463 -0.000056 0.000021 17.166463 -0.000050 0.000000 13.733175 -0.000027 -0.000002 6.866585 0.000048 -0.000011 1.007421 0.000048 -0.000011 1.007421 0.000034 -0.000005 0.805937 0.000019 -0.000001 0.402967 0.000008 0.000002 -12.500000 0.000008 0.000002 -12.500000 -0.000007 -0.000003 -9.999995 -0.000002 -0.000003 -5.000002 -38.265460 -3.849902 -7.362319 10.116442 8.815778 5.960577 0.000000 -0.163962 0.000000 5.988040 -0.933040 -5.056623 0.000000 -6.449949 0.000000 -10.550443 11.489762 -2.606225 0.000000 -1.284529 0.000000 -12.466591 0.418171 3.016533 0.000000 -6.560415 0.000000
-33.360565 94.881299 -23.494614 9.306861 -3.801149 -1.340006 -0.661811 0.458130 0.948036 -0.676440 0.671242 0.708850 -0.879006 0.861926 0.431913 -0.927395 0.986432 0.251859 0.573455 1.772791 2.510325 0.218575 -0.128422 -0.943342 10.741239 2.573602 6.986222 -20.323662 1.088425 -13.763934 -5.982277 0.969484 0.817725 25.131656 2.323229 -31.006979 -38.265460 -3.849902 -7.362319 -43.972895 -4.816098 -8.187846 64.830194 5.445621 20.908035 -0.000047 0.000024 1.950131 -0.000047 0.000024 1.950131 -0.000054 0.000023 1.560103 -0.000005 0.000007 0.780051 -0.000022 0.000010 1.323891 -0.000022 0.000010 1.323891 -0.000007 0.000008 1.059114 -0.000010 0.000002 0.529556 0.000003 -0.000000 6.975243 0.000003 -0.000000 6.975243 -0.000003 -0.000000 5.580193 -0.000005 0.000000 2.790098 -0.000011 0.000009 7.334234 -0.000011 0.000009 7.334234 -0.000025 0.000005 5.867388 -0.000007 0.000005 2.933690 -175.539686 -0.002122 -179.945515 -5.427370 4.683452 -5.451148 21.348827 6.497622 3.083827 7.026488 4.954621 0.489569 -17.718006 -12.623380 40.553086 -2.698078 -9.609721 5.025575 -3.182823 -11.029639 5.830809 -12.439630 2.413593 -3.058284 -0.000089 0.000002 8.546031 -0.000089 0.000002 8.546031 -0.000076 0.000003 6.836828 -0.000040 -0.000012 3.418410 -0.000056 0.000021 17.166463 -0.000056 0.000021 17.166463 -0.000050 0.000000 13.733175 -0.000027 -0.000002 6.866585 0.000048 -0.000011 1.007421 0.000048 -0.000011 1.007421 0.000034 -0.000005 0.805937 0.000019 -0.000001 0.402967 0.000008 0.000002 -12.500000 0.000008 0.000002 -12.500000 -0.000007 -0.000003 -9.999995 -0.000002 -0.000003 -5.000002 -38.265460 -3.849902 -7.362319 10.080315 8.822985 5.964323 0.000000 -0.169758 0.000000 5.987022 -0.965099 -5.051526 0.000000 -6.431050 0.000000 -10.561943 11.490813 -2.600837 0.000000 -1.285966 0.000000 -12.458093 0.431647 3.024063 0.000000 -6.563859 0.000000
-33.363110 94.881140 -23.493797 9.299316 -3.799899 -1.329432 -0.656661 0.470345 0.940293 -0.670455 0.677332 0.703147 -0.875431 0.860888 0.428724 -0.923249 0.989446 0.263261 0.567060 1.728974 2.516137 0.215062 -0.088651 -0.964885 10.743345 2.587943 6.984347 -20.344961 1.096194 -13.765834 -5.993721 0.961083 0.815558 25.141872 2.313397 -31.025213 -38.306884 -3.828514 -7.396635 -44.020360 -4.794029 -8.227882 64.744062 5.462162 20.904026 -0.000014 0.000004 1.916045 -0.000014 0.000004 1.916045 0.000002 0.000001 1.532837 0.000000 0.000001 0.766417 -0.000005 0.000000 1.332709 -0.000005 0.000000 1.332709 -0.000000 0.000004 1.066168 -0.000009 0.000001 0.533085 -0.000007 -0.000001 6.975827 -0.000007 -0.000001 6.975827 0.000005 0.000001 5.580659 -0.000005 -0.000000 2.790332 0.000002 0.000001 7.344427 0.000002 0.000001 7.344427 -0.000012 0.000002 5.875541 0.000000 0.000000 2.937771 -175.539694 -0.002122 -179.945515 -5.432725 4.680223 -5.442703 21.319641 6.514632 3.057561 7.064361 4.963300 0.496968 -17.705913 -12.632479 40.556489 -2.690358 -9.609178 5.023473 -3.173889 -11.029085 5.828272 -12.506005 2.417163 -3.036792 -0.000020 0.000002 8.521891 -0.000020 0.000002 8.521891 -0.000012 0.000001 6.817510 -0.000011 0.000002 3.408759 0.000080 -0.000008 16.519982 0.000080 -0.000008 16.519982 0.000069 0.000014 13.215986 0.000033 0.000013 6.607998 -0.000010 0.000000 1.115785 -0.000010 0.000000 1.115785 -0.000006 -0.000001 0.892628 0.000002 -0.000002 0.446313 -0.000002 0.000002 -12.499999 -0.000002 0.000002 -12.499999 -0.000006 -0.000001 -10.000000 0.000001 -0.000005 -4.999997 -38.306884 -3.828514 -7.396635 10.095075 8.820559 5.959250 0.000000 -0.168349 0.000000 5.986019 -0.925131 -5.082120 0.000000 -6.477762 0.000000 -10.544554 11.492957 -2.604164 0.000000 -1.296247 0.000000 -12.478705 0.404548 3.016385 0.000000 -6.506455 0.000000
-33.360867 94.881470 -23.490942 9.304941 -3.798509 -1.336933 -0.658790 0.456715 0.953301 -0.672764 0.698804 0.709597 -0.871848 0.867535 0.429374 -0.919509 0.991429 0.256708 0.559199 1.735383 2.506526 0.213030 -0.131487 -0.957639 10.723846 2.577811 6.976575 -20.338860 1.107550 -13.771514 -5.993582 0.973710 0.813072 25.143310 2.267259 -31.023211 -38.306884 -3.828514 -7.396635 -44.020360 -4.794029 -8.227882 64.744062 5.462162 20.904026 -0.000014 0.000004 1.916045 -0.000014 0.000004 1.916045 0.000002 0.000001 1.532837 0.000000 0.000001 0.766417 -0.000005 0.000000 1.332709 -0.000005 0.000000 1.332709 -0.000000 0.000004 1.066168 -0.000009 0.000001 0.533085 -0.000007 -0.000001 6.975827 -0.000007 -0.000001 6.975827 0.000005 0.000001 5.580659 -0.000005 -0.000000 2.790332 0.000002 0.000001 7.344427 0.000002 0.000001 7.344427 -0.000012 0.000002 5.875541 0.000000 0.000000 2.937771 -175.539694 -0.002122 -179.945515 -5.426696 4.679392 -5.456084 21.309916 6.529494 3.070089 7.059774 4.911434 0.488182 -17.716349 -12.622581 40.576765 -2.690358 -9.609178 5.023473 -3.173889 -11.029085 5.828272 -12.506005 2.417163 -3.036792 -0.000020 0.000002 8.521891 -0.000020 0.000002 8.521891 -0.000012 0.000001 6.817510 -0.000011 0.000002 3.408759 0.000080 -0.000008 16.519982 0.000080 -0.000008 16.519982 0.000069 0.000014 13.215986 0.000033 0.000013 6.607998 -0.000010 0.000000 1.115785 -0.000010 0.000000 1.115785 -0.000006 -0.000001 0.892628 0.000002 -0.000002 0.446313 -0.000002 0.000002 -12.499999 -0.000002 0.000002 -12.499999 -0.000006 -0.000001 -10.000000 0.000001 -0.000005 -4.999997 -38.306884 -3.828514 -7.396635 10.095743 8.823998 5.965757 0.000000 -0.174451 0.000000 5.983820 -0.942441 -5.077686 0.000000 -6.454926 0.000000 -10.575294 11.491523 -2.605222 0.000000 -1.292013 0.000000 -12.445240 0.425272 3.001512 0.000000 -6.530786 0.000000
